<?xml version="1.0" encoding="utf-8"?>
<!-- Generator: Adobe Illustrator 17.0.0, SVG Export Plug-In . SVG Version: 6.00 Build 0)  -->
<!DOCTYPE svg PUBLIC "-//W3C//DTD SVG 1.1//EN" "http://www.w3.org/Graphics/SVG/1.1/DTD/svg11.dtd">
<svg version="1.1" id="Layer_1" xmlns="http://www.w3.org/2000/svg" xmlns:xlink="http://www.w3.org/1999/xlink" x="0px" y="0px"
	 width="610px" height="200px" viewBox="0 0 610 200" enable-background="new 0 0 610 200" xml:space="preserve">
<g>
	<polygon fill="#FFFFFF" points="94.371,103.426 94.929,102.928 95.381,101.997 95.682,101.328 95.941,100.498 96.104,99.228 
		96.22,97.665 96.22,96.368 96.215,95.588 96.122,93.931 96.056,92.715 95.98,91.389 95.855,89.311 95.728,87.342 95.558,84.987 
		95.441,83.364 95.33,81.909 95.196,80.239 95.018,78.005 94.841,76.085 94.663,74.273 94.429,71.964 94.264,70.99 94.199,70.263 
		93.983,68.733 93.567,65.871 93.201,63.311 93.102,62.676 92.951,61.708 92.724,60.623 92.514,59.647 92.111,57.769 91.824,56.409 
		91.543,55.13 91.342,54.353 91.135,53.674 90.984,53.149 90.764,52.528 90.46,51.751 90.137,50.953 89.755,50.036 89.397,49.196 
		88.843,47.923 88.138,46.363 87.798,45.655 87.321,44.758 86.87,43.922 86.262,42.887 85.485,41.663 84.91,40.81 84.272,39.949 
		83.844,39.39 83.317,38.699 82.456,37.584 81.858,36.841 81.188,36 80.254,34.839 79.437,33.876 78.175,32.414 77.026,31.11 
		75.975,29.991 74.169,28.109 72.366,26.257 70.985,24.866 68.967,22.929 67.01,21.137 65.276,19.638 64.269,18.785 63.281,17.959 
		62.34,17.183 60.932,16.038 59.218,14.681 58.351,14.012 57.779,13.6 56.75,12.898 55.618,12.129 54.107,11.108 52.741,10.201 
		51.456,9.378 50.233,8.619 48.921,7.825 46.585,6.429 45.335,5.68 44.256,5.07 42.938,4.384 42.196,4.065 41.347,3.76 
		40.434,3.488 39.581,3.282 38.772,3.128 37.255,2.94 35.718,2.888 34.86,2.922 34.003,3 32.943,3.155 32.095,3.332 30.708,3.724 
		29.678,4.102 28.753,4.511 28.257,4.764 27.664,5.115 26.931,5.646 26.109,6.351 25.709,6.722 25.305,7.121 24.899,7.552 
		24.318,8.225 23.778,8.925 23.281,9.65 22.786,10.474 22.344,11.327 21.949,12.204 21.408,13.699 21.068,14.907 20.919,15.584 
		20.807,16.324 20.713,17.334 20.671,18.316 20.671,19.378 20.817,20.528 21.038,22.076 21.353,24.19 21.563,25.557 21.878,27.648 
		22.104,29.023 22.467,30.805 22.859,32.632 23.4,35.167 23.649,36.253 23.877,37.089 24.272,38.427 24.798,40.253 25.288,41.903 
		26.185,44.556 26.895,46.587 28.039,49.656 28.786,51.531 29.292,52.753 29.919,54.162 30.814,56.137 31.773,58.225 32.639,60.033 
		33.648,62.051 34.359,63.412 35.47,65.403 36.301,66.85 37.134,68.266 38.204,70.035 39.069,71.346 40.177,72.853 41.24,74.171 
		42.095,75.163 42.588,75.711 43.576,76.753 45.045,78.2 46.185,79.297 47.268,80.314 48.001,80.945 48.952,81.686 50.312,82.634 
		51.928,83.704 53.343,84.643 54.525,85.429 55.572,86.108 56.465,86.616 57.868,87.419 59.42,88.299 61.022,89.225 62.292,89.956 
		63.974,90.925 66.76,92.412 69.431,93.832 71.749,94.98 74.529,96.357 76.901,97.508 78.856,98.444 81.252,99.505 81.817,99.779 
		82.755,100.232 83.866,100.768 84.924,101.279 86.525,102.036 87.654,102.416 89.122,102.91 90.135,103.254 90.769,103.471 
		91.471,103.607 92.042,103.664 92.773,103.664 93.298,103.632 93.552,103.598 	"/>
	<polygon fill="#FFFFFF" points="101.451,104.78 102.582,104.802 103.703,104.759 104.271,104.632 105.14,104.436 107.006,103.919 
		108.379,103.392 109.961,102.899 110.983,102.584 113.427,101.816 115.902,101.002 119.324,99.841 120.083,99.58 121.23,99.142 
		122.676,98.573 124.101,98.004 124.839,97.709 125.762,97.351 126.557,97.012 127.28,96.684 128.069,96.313 128.58,96.076 
		129.595,95.595 130.509,95.144 131.057,94.857 131.716,94.483 132.404,94.021 132.994,93.596 133.883,92.954 134.748,92.318 
		135.554,91.692 136.267,91.094 137.089,90.368 137.842,89.622 138.973,88.377 139.691,87.514 140.344,86.713 141.089,85.763 
		142.053,84.51 143.263,82.869 144.184,81.501 144.892,80.418 145.63,79.281 146.287,78.25 146.794,77.43 147.585,76.074 
		148.062,75.236 148.598,74.226 149.255,72.956 149.813,71.864 150.665,70.106 151.089,69.203 151.444,68.409 151.804,67.523 
		152.238,66.367 152.58,65.495 152.983,64.425 153.344,63.408 153.714,62.239 154.14,60.916 154.584,59.522 154.851,58.655 
		155.03,57.919 155.168,57.007 155.229,56.023 155.205,55.148 155.134,54.459 155.016,53.77 154.769,52.776 154.394,51.801 
		154.061,51.088 153.579,50.274 152.935,49.379 152.24,48.643 152.009,48.432 151.74,48.241 151.269,47.926 150.703,47.562 
		150.079,47.236 149.576,46.994 149.07,46.793 148.753,46.689 148.149,46.501 147.466,46.336 146.977,46.245 146.457,46.205 
		145.186,46.154 144.217,46.148 143.301,46.303 142.895,46.384 141.89,46.684 140.632,47.168 138.433,48.046 137.411,48.461 
		135.643,49.223 133.165,50.397 132.215,50.84 131.84,51.039 131.315,51.333 130.864,51.587 130.329,51.894 129.861,52.164 
		129.577,52.307 128.939,52.672 128.215,53.11 126.965,53.886 125.413,54.866 124.329,55.605 123.061,56.5 121.783,57.418 
		120.585,58.335 119.261,59.349 118.439,59.999 117.465,60.821 116.539,61.623 115.407,62.641 114.738,63.262 113.729,64.208 
		112.965,64.955 112.498,65.437 111.867,66.114 111.349,66.719 110.814,67.431 110.119,68.386 109.498,69.302 108.911,70.244 
		108.348,71.191 107.985,71.799 107.59,72.465 107.192,73.313 106.915,73.976 106.616,74.816 106.222,75.896 105.822,76.979 
		105.471,77.934 105.091,79.19 104.843,79.982 104.548,81.008 104.178,82.225 103.853,83.326 103.485,84.588 103.103,86.157 
		102.579,88.393 101.93,91.138 101.435,93.409 100.971,95.616 100.682,97.198 100.376,98.491 100.317,98.852 100.188,99.763 
		100.036,101.132 99.975,102.13 99.975,102.912 100.14,103.494 100.315,103.875 100.537,104.287 100.814,104.504 101.088,104.643 	
		"/>
	<polygon fill="#FFFFFF" points="92.552,108.291 91.901,107.852 90.99,107.385 90.125,107.121 89.032,106.947 88.148,106.767 
		87.583,106.647 86.36,106.489 84.82,106.325 83.214,106.161 81.832,106.038 80.907,105.963 79.501,105.788 78.596,105.676 
		77.274,105.572 75.298,105.423 73.17,105.295 71.284,105.172 69.022,105.037 68.433,104.986 67.449,104.94 66.049,104.919 
		64.126,104.893 62.361,104.895 59.357,104.895 57.465,104.913 56.955,104.939 55.572,105.016 53.635,105.125 51.966,105.282 
		51.418,105.358 50.699,105.483 49.323,105.803 48.095,106.099 46.879,106.398 45.647,106.722 44.98,106.925 43.592,107.38 
		42.511,107.764 41.271,108.291 40.669,108.577 39.866,108.969 38.907,109.457 37.364,110.279 36.492,110.772 35.287,111.437 
		34.216,112.072 33.082,112.76 31.708,113.6 30.753,114.206 29.708,114.923 29.181,115.281 28.088,116.027 27.053,116.745 
		25.858,117.599 24.879,118.31 23.592,119.263 22.674,119.96 21.622,120.798 20.052,122.105 18.423,123.47 16.686,125.019 
		15.199,126.398 13.633,127.969 11.764,129.926 10.626,131.137 9.402,132.546 8.279,133.856 7.485,134.781 6.995,135.356 
		6.376,136.094 5.714,136.914 5.12,137.736 4.464,138.878 4.131,139.575 3.74,140.574 3.477,141.387 3.248,142.269 3.073,143.409 
		3,144.397 3.01,145.835 3.122,146.934 3.386,148.155 3.824,149.517 4.233,150.381 4.669,151.029 5.468,152.121 6.358,153.092 
		7.437,154.076 8.515,154.877 9.567,155.509 10.595,156.01 11.698,156.433 12.576,156.699 13.679,156.947 14.562,157.085 
		15.45,157.129 17.467,157.181 19.534,157.179 21.092,157.181 23.223,157.16 24.623,157.093 26.213,157.002 28.516,156.865 
		29.595,156.79 30.077,156.72 31.348,156.56 32.925,156.356 34.529,156.12 36.108,155.858 37.748,155.579 39.221,155.308 
		40.839,154.955 42.674,154.52 44.908,153.958 46.479,153.546 49.282,152.777 50.803,152.296 52.876,151.608 54.279,151.124 
		55.392,150.705 56.564,150.271 57.495,149.896 59.637,148.996 60.679,148.507 62.133,147.72 63.986,146.571 65.927,145.23 
		68.055,143.646 69.124,142.762 70.187,141.764 71.028,140.903 72.726,139.088 73.774,137.934 75.295,136.117 77.835,133.017 
		78.938,131.666 79.971,130.366 80.615,129.489 81.241,128.639 81.99,127.619 82.753,126.562 83.557,125.464 84.795,123.767 
		86.411,121.333 87.859,119.372 88.732,118.188 89.189,117.489 90.084,116.119 90.852,114.947 91.55,113.831 91.981,113.118 
		92.336,112.517 92.615,111.881 92.821,111.213 93.059,110.271 93.153,109.725 93.13,109.267 92.935,108.744 	"/>
	<polygon fill="#FFFFFF" points="97.603,112.555 97.131,112.766 96.566,113.115 96.281,113.335 95.934,113.692 95.347,114.402 
		94.614,115.401 94.001,116.31 93.377,117.278 92.628,118.451 91.898,119.59 91.205,120.686 90.62,121.648 89.965,122.734 
		89.32,123.785 88.826,124.612 88.328,125.451 87.983,126.055 87.505,126.925 86.845,128.161 86.158,129.44 85.558,130.572 
		85.054,131.638 84.613,132.631 84.186,133.561 83.727,134.706 83.509,135.322 83.284,136.165 82.961,137.475 82.9,137.752 
		82.727,138.583 82.596,139.278 82.462,140.152 82.352,141.102 82.312,141.914 82.314,143.054 82.344,144.22 82.377,145.084 
		82.443,146.568 82.548,147.738 82.7,149.303 82.897,150.768 83.009,151.631 83.144,152.421 83.205,152.977 83.341,153.656 
		83.438,154.172 83.616,155.17 83.768,155.975 84.001,156.884 84.253,157.975 84.455,158.875 84.661,159.567 84.871,160.307 
		85.127,161.224 85.51,162.405 85.818,163.214 86.107,164.041 86.515,165.146 86.901,166.14 87.261,166.972 87.439,167.358 
		87.675,167.899 87.905,168.465 88.184,169.117 88.598,170.001 88.922,170.615 89.346,171.294 89.957,172.008 90.416,172.473 
		90.807,172.841 91.39,173.326 92.228,173.833 92.634,174.041 93.268,174.323 93.709,174.487 94.643,174.748 95.264,174.852 
		95.936,174.892 96.935,174.808 97.603,174.689 98.825,174.336 99.762,173.926 100.865,173.253 101.793,172.493 102.42,171.857 
		102.75,171.46 103.234,170.74 103.628,170.049 104.304,168.773 105.109,167.223 105.637,166.181 106.222,164.882 106.836,163.522 
		107.486,161.928 108.216,159.887 108.955,157.554 109.327,156.276 109.834,154.319 110.251,152.468 110.571,150.95 
		110.841,149.475 111.087,147.847 111.314,146.067 111.499,144.022 111.522,143.617 111.557,142.602 111.557,141.352 
		111.301,139.252 110.882,136.807 110.647,135.885 110.103,134.306 108.724,130.833 107.082,127.298 106.545,126.165 
		105.837,124.819 104.984,123.185 104.069,121.479 103.254,119.996 102.324,118.308 101.261,116.45 100.454,115.094 99.535,113.775 
		98.836,113.104 98.293,112.752 97.813,112.517 	"/>
	<polygon fill="#FFFFFF" points="101.874,109.34 102.219,109.016 102.536,108.792 102.915,108.596 103.297,108.452 103.891,108.309 
		105.216,108.077 108.176,107.745 110.56,107.513 111.98,107.39 114.601,107.181 116.369,107.103 117.572,107.053 119.241,107.062 
		121.151,107.106 122.488,107.161 122.982,107.208 123.56,107.299 124.644,107.516 125.815,107.802 127.186,108.207 
		128.464,108.718 129.768,109.34 131.356,110.184 133.025,111.173 134.583,112.176 136.505,113.509 138.38,114.921 139.714,116.001 
		140.967,117.126 142.213,118.323 142.781,118.896 143.492,119.641 144.329,120.557 144.919,121.238 145.642,122.076 
		146.117,122.637 146.604,123.302 146.835,123.694 147.137,124.334 147.364,124.959 147.54,125.657 147.654,126.582 
		147.661,127.363 147.542,128.14 147.434,128.624 147.17,129.399 146.741,130.171 146.327,130.714 145.747,131.303 145.231,131.724 
		144.554,132.165 143.905,132.496 143.176,132.777 142.482,132.961 141.865,133.06 140.784,133.098 138.875,133.098 137.332,133.09 
		136.681,133.098 135.597,133.043 134.438,132.953 133.2,132.82 131.559,132.598 129.496,132.251 127.563,131.849 125.8,131.407 
		123.916,130.906 122.435,130.429 120.907,129.892 119.058,129.179 117.865,128.597 116.546,127.799 115.846,127.339 
		114.746,126.557 114.126,126.066 113.323,125.306 112.473,124.438 111.032,122.856 109.152,120.644 107.199,118.118 
		105.832,116.283 104.209,114.05 103.321,112.789 102.43,111.38 101.993,110.459 101.874,109.953 	"/>
	<path fill="#FFFFFF" d="M203.154,126.629l-31.305-79.701c0.817-0.401,1.922-0.763,3.314-1.085c1.391-0.32,2.619-0.482,3.683-0.482
		c6.464,0,10.638,2.573,12.522,7.717l18.906,51.968l-2.946,7.717l1.35,0.481l22.098-60.167c1.964-5.144,6.138-7.717,12.522-7.717
		c1.063,0,2.291,0.162,3.683,0.482c1.391,0.322,2.536,0.684,3.438,1.085l-31.305,79.701c-0.656,1.688-1.657,2.995-3.008,3.918
		c-1.35,0.924-3.007,1.387-4.972,1.387C207.205,131.934,204.545,130.167,203.154,126.629z"/>
	<path fill="#FFFFFF" d="M259.443,129.522c-3.479-1.607-6.261-3.919-8.348-6.934c-2.087-3.014-3.13-6.61-3.13-10.791
		c0-4.179,1.105-7.816,3.314-10.912c2.21-3.094,5.218-5.465,9.023-7.114c3.806-1.646,7.999-2.472,12.583-2.472
		c3.763,0,7.139,0.584,10.128,1.749c2.986,1.166,5.749,2.915,8.287,5.245l0.614-0.603c-0.737-0.724-2.006-1.809-3.806-3.255v-2.412
		c0-3.295-1.188-5.908-3.56-7.837c-2.375-1.929-5.689-2.894-9.944-2.894c-7.611,0-13.218,2.734-16.818,8.199
		c-1.801-0.562-3.315-1.466-4.542-2.713c-1.228-1.245-1.841-2.592-1.841-4.039c0-2.412,1.105-4.622,3.314-6.632
		c2.21-2.008,5.196-3.617,8.962-4.823c3.764-1.206,7.857-1.809,12.276-1.809c8.674,0,15.386,1.99,20.133,5.969
		c4.746,3.979,7.121,9.386,7.121,16.217v30.144c0,3.538-1.147,6.109-3.438,7.717c-2.292,1.606-5.893,2.411-10.803,2.411v-4.943
		c1.391-1.366,2.333-2.37,2.823-3.015l-0.491-0.603c-2.701,2.814-5.586,4.943-8.655,6.391c-3.069,1.446-6.979,2.17-11.724,2.17
		C266.747,131.934,262.92,131.129,259.443,129.522z M284.793,118.55c2.373-1.606,3.561-3.897,3.561-6.873
		c0-2.894-1.208-5.185-3.622-6.872c-2.415-1.688-5.668-2.532-9.76-2.532c-3.766,0-6.733,0.825-8.9,2.472
		c-2.169,1.648-3.253,3.96-3.253,6.933c0,3.057,1.062,5.366,3.192,6.934c2.127,1.567,5.074,2.352,8.839,2.352
		C279.104,120.962,282.419,120.159,284.793,118.55z"/>
	<path fill="#FFFFFF" d="M321.683,126.206c-3.479-3.816-5.218-8.66-5.218-14.529V54.524c0-3.295,1.247-5.646,3.744-7.054
		c2.496-1.405,6.363-2.11,11.602-2.11v65.713c0,2.733,0.613,4.724,1.842,5.969c1.228,1.247,3.191,1.869,5.893,1.869
		c3.026,0,6.056-0.764,9.084-2.291c0.817,0.723,1.452,1.627,1.903,2.713c0.448,1.085,0.675,2.19,0.675,3.315
		c0,2.411-1.228,4.563-3.683,6.451c-2.455,1.888-5.935,2.833-10.436,2.833C330.295,131.934,325.16,130.025,321.683,126.206z"/>
	<path fill="#FFFFFF" d="M363.422,126.206c-3.479-3.816-5.218-8.66-5.218-14.529V54.524c0-3.295,1.247-5.646,3.744-7.054
		c2.496-1.405,6.363-2.11,11.602-2.11v65.713c0,2.733,0.613,4.724,1.842,5.969c1.228,1.247,3.191,1.869,5.893,1.869
		c3.026,0,6.056-0.764,9.084-2.291c0.817,0.723,1.452,1.627,1.903,2.713c0.448,1.085,0.675,2.19,0.675,3.315
		c0,2.411-1.228,4.563-3.683,6.451c-2.455,1.888-5.935,2.833-10.436,2.833C372.034,131.934,366.899,130.025,363.422,126.206z"/>
	<path fill="#FFFFFF" d="M409.335,129.522c-3.479-1.607-6.261-3.919-8.348-6.934c-2.087-3.014-3.131-6.61-3.131-10.791
		c0-4.179,1.104-7.816,3.314-10.912c2.21-3.094,5.218-5.465,9.023-7.114c3.806-1.646,7.999-2.472,12.583-2.472
		c3.764,0,7.14,0.584,10.128,1.749c2.987,1.166,5.749,2.915,8.287,5.245l0.613-0.603c-0.736-0.724-2.006-1.809-3.806-3.255v-2.412
		c0-3.295-1.187-5.908-3.56-7.837c-2.375-1.929-5.689-2.894-9.944-2.894c-7.611,0-13.218,2.734-16.818,8.199
		c-1.802-0.562-3.314-1.466-4.542-2.713c-1.229-1.245-1.842-2.592-1.842-4.039c0-2.412,1.104-4.622,3.314-6.632
		c2.21-2.008,5.196-3.617,8.962-4.823c3.764-1.206,7.856-1.809,12.276-1.809c8.674,0,15.386,1.99,20.134,5.969
		c4.745,3.979,7.12,9.386,7.12,16.217v30.144c0,3.538-1.147,6.109-3.438,7.717c-2.292,1.606-5.893,2.411-10.804,2.411v-4.943
		c1.391-1.366,2.333-2.37,2.824-3.015l-0.491-0.603c-2.701,2.814-5.586,4.943-8.655,6.391c-3.068,1.446-6.979,2.17-11.724,2.17
		C416.64,131.934,412.812,131.129,409.335,129.522z M434.686,118.55c2.373-1.606,3.561-3.897,3.561-6.873
		c0-2.894-1.209-5.185-3.622-6.872c-2.415-1.688-5.668-2.532-9.76-2.532c-3.765,0-6.732,0.825-8.9,2.472
		c-2.169,1.648-3.253,3.96-3.253,6.933c0,3.057,1.062,5.366,3.191,6.934c2.128,1.567,5.074,2.352,8.84,2.352
		C428.996,120.962,432.311,120.159,434.686,118.55z"/>
	<path fill="#FFFFFF" d="M486.613,86.296c-3.028,2.532-4.542,5.688-4.542,9.465v27.009c0,3.216-1.228,5.546-3.683,6.993
		c-2.455,1.446-6.304,2.17-11.54,2.17V81.051c0-3.696,1.206-6.55,3.621-8.561c2.413-2.008,6.077-3.015,10.987-3.015v7.114
		c-1.228,1.368-2.209,2.694-2.946,3.979l0.737,0.482c5.156-7.717,11.62-11.575,19.396-11.575c3.518,0,6.179,0.904,7.979,2.713
		c1.8,1.809,2.701,4.081,2.701,6.812c0,2.091-0.573,3.859-1.719,5.306c-2.21-1.206-5.279-1.809-9.207-1.809
		C493.569,82.498,489.641,83.764,486.613,86.296z"/>
	<path fill="#FFFFFF" d="M519.698,61.216c-1.924-1.728-2.885-3.958-2.885-6.692c0-2.653,0.961-4.842,2.885-6.571
		c1.922-1.728,4.358-2.592,7.305-2.592s5.381,0.865,7.305,2.592c1.922,1.729,2.885,3.918,2.885,6.571
		c0,2.734-0.963,4.964-2.885,6.692c-1.924,1.729-4.358,2.592-7.305,2.592S521.62,62.946,519.698,61.216z M519.269,78.64
		c0-3.295,1.268-5.646,3.806-7.054c2.536-1.406,6.384-2.11,11.54-2.11v53.295c0,3.216-1.27,5.546-3.806,6.993
		c-2.538,1.446-6.384,2.17-11.54,2.17V78.64z"/>
	<path fill="#FFFFFF" d="M557.632,127.774c-4.788-2.773-7.224-6.491-7.305-11.153c0-2.009,0.838-3.696,2.517-5.064
		c1.677-1.366,4.358-2.09,8.041-2.171c0.736,3.539,2.455,6.252,5.156,8.14c2.701,1.89,5.974,2.833,9.821,2.833
		c4.174,0,7.446-0.521,9.821-1.567c2.373-1.044,3.56-2.611,3.56-4.702c0-1.93-0.963-3.536-2.885-4.823
		c-1.924-1.285-5.708-2.571-11.355-3.858c-6.139-1.447-10.907-2.894-14.302-4.341c-3.397-1.447-5.914-3.295-7.551-5.546
		c-1.638-2.25-2.455-5.224-2.455-8.922c0-5.144,2.21-9.285,6.63-12.419c4.419-3.135,10.475-4.703,18.169-4.703
		c7.446,0,13.627,1.308,18.537,3.919c4.911,2.613,7.366,6.089,7.366,10.43c0,2.17-0.819,3.779-2.455,4.823
		c-1.639,1.045-4.34,1.609-8.103,1.688c-0.819-3.214-2.375-5.626-4.665-7.235c-2.293-1.607-5.524-2.411-9.699-2.411
		c-3.11,0-5.791,0.523-8.041,1.567c-2.252,1.045-3.376,2.412-3.376,4.1c0,1.769,0.94,3.135,2.824,4.1
		c1.882,0.964,5.156,1.929,9.821,2.894c9.165,1.929,15.815,4.503,19.949,7.717c4.132,3.216,6.199,7.597,6.199,13.143
		c0,5.387-2.437,9.688-7.305,12.901c-4.87,3.217-11.521,4.823-19.949,4.823C568.742,131.934,562.42,130.547,557.632,127.774z"/>
</g>
</svg>
